<svg preserveAspectRatio="none" overflow="visible" style="display: block;" width="18.423" height="19.7972" viewBox="0 0 18.423 19.7972" fill="none" xmlns="http://www.w3.org/2000/svg">
<path id="Vector" d="M6.35501 14.982C8.25303 15.2071 10.171 15.2071 12.069 14.982C13.9322 14.7614 15.7629 14.3217 17.523 13.672C16.0324 12.0208 15.2087 9.8745 15.212 7.65V6.95V6.9C15.212 5.3087 14.5799 3.78258 13.4547 2.65736C12.3294 1.53214 10.8033 0.9 9.21201 0.9C7.62071 0.9 6.09459 1.53214 4.96937 2.65736C3.84416 3.78258 3.21201 5.3087 3.21201 6.9V7.65C3.21503 9.87463 2.391 12.021 0.900014 13.672C2.63301 14.312 4.46001 14.757 6.35501 14.982ZM12.069 14.982C12.2131 15.4319 12.249 15.9094 12.1736 16.3757C12.0982 16.842 11.9138 17.284 11.6354 17.6656C11.3569 18.0472 10.9923 18.3576 10.5712 18.5716C10.1501 18.7856 9.68439 18.8972 9.21201 18.8972C8.73964 18.8972 8.27394 18.7856 7.85282 18.5716C7.43171 18.3576 7.06709 18.0472 6.78863 17.6656C6.51018 17.284 6.32578 16.842 6.25043 16.3757C6.17508 15.9094 6.21091 15.4319 6.35501 14.982" stroke="#AEB1C4" stroke-width="1.8" stroke-linecap="round" stroke-linejoin="round"/>
</svg>
